<svg width="2136" height="1433" xmlns="http://www.w3.org/2000/svg" xmlns:xlink="http://www.w3.org/1999/xlink" overflow="hidden"><defs><clipPath id="clip0"><rect x="1081" y="574" width="2136" height="1433"/></clipPath><clipPath id="clip1"><rect x="2986" y="1433" width="184" height="183"/></clipPath><clipPath id="clip2"><rect x="2986" y="1433" width="184" height="183"/></clipPath><clipPath id="clip3"><rect x="2986" y="1433" width="184" height="183"/></clipPath></defs><g clip-path="url(#clip0)" transform="translate(-1081 -574)"><rect x="1083.5" y="576.5" width="2131" height="1067" stroke="#2F528F" stroke-width="4.58333" stroke-miterlimit="8" fill="none"/><g clip-path="url(#clip1)"><g clip-path="url(#clip2)"><g clip-path="url(#clip3)"><path d="M3160.5 1561.1 2994.5 1561.1C2991.83 1561.1 2989.66 1563.27 2989.66 1565.94L2989.66 1611.16C2989.66 1613.83 2991.83 1616 2994.5 1616L3160.5 1616C3163.17 1616 3165.34 1613.83 3165.34 1611.16L3165.34 1565.94C3165.34 1563.28 3163.16 1561.1 3160.5 1561.1Z" fill="#7A7A7A"/><path d="M3139.72 1572.08 3150.7 1572.08 3150.7 1583.06 3139.72 1583.06Z" fill="#B8D432"/><path d="M3139.72 1594.04 3150.7 1594.04 3150.7 1605.02 3139.72 1605.02Z" fill="#B8D432"/><path d="M3141.52 1487.3C3142.88 1483.24 3143.65 1478.92 3143.65 1474.41 3143.65 1451.74 3125.01 1433.37 3102.01 1433.37 3084.63 1433.37 3069.77 1443.89 3063.54 1458.82 3058.01 1452.98 3050.15 1449.44 3041.41 1449.44 3024.69 1449.44 3011.26 1462.68 3011.26 1479.17 3011.26 1482.1 3011.69 1485.04 3012.49 1487.71 2999.46 1492.58 2990.03 1504.97 2990.03 1519.6 2990.03 1538.45 3005.42 1553.78 3024.43 1553.78L3130.57 1553.78C3149.63 1553.78 3164.98 1538.47 3164.98 1519.6 3165.02 1504.56 3155.19 1491.82 3141.52 1487.3Z" fill="#59B4D9"/><path d="M3001.83 1538.74C3001.83 1523.86 3011.72 1511.27 3025.39 1506.32 3024.55 1503.6 3024.09 1500.61 3024.09 1497.63 3024.09 1480.87 3038.18 1467.4 3055.71 1467.4 3064.87 1467.4 3073.13 1471.01 3078.92 1476.94 3085.45 1461.77 3101.03 1451.07 3119.26 1451.07 3126.57 1451.07 3133.45 1452.79 3139.5 1455.82 3132.75 1442.53 3118.5 1433.37 3102.01 1433.37 3084.63 1433.37 3069.77 1443.57 3063.54 1458.04 3058.01 1452.38 3050.15 1448.95 3041.41 1448.95 3024.69 1448.95 3011.26 1461.79 3011.26 1477.77 3011.26 1480.61 3011.69 1483.46 3012.49 1486.06 2999.46 1490.78 2990.03 1502.79 2990.03 1516.98 2990.03 1527.01 2994.67 1536.01 3002 1542.09 3001.89 1540.99 3001.83 1539.88 3001.83 1538.74Z" fill="#FFFFFF" fill-opacity="0.2"/><path d="M3137.65 1524.85C3135.58 1519.58 3130.59 1516.18 3124.93 1516.18 3123.23 1516.18 3121.56 1516.49 3119.97 1517.12 3119.53 1517.29 3119.15 1517.54 3118.73 1517.75L3105.24 1504.77C3106.23 1502.39 3106.78 1499.78 3106.78 1497.05 3106.78 1485.95 3097.75 1476.92 3086.65 1476.92 3081.28 1476.92 3076.41 1479.05 3072.79 1482.49L3065.46 1477.92C3065.64 1475.86 3065.4 1473.77 3064.62 1471.79 3062.56 1466.52 3057.58 1463.11 3051.92 1463.11 3050.21 1463.11 3048.54 1463.43 3046.95 1464.05 3039.94 1466.79 3036.48 1474.72 3039.22 1481.73 3041.28 1486.99 3046.27 1490.4 3051.92 1490.4 3051.93 1490.4 3051.93 1490.4 3051.93 1490.4 3053.63 1490.4 3055.3 1490.09 3056.89 1489.46 3057.99 1489.03 3058.97 1488.44 3059.89 1487.77L3067.12 1492.27C3066.74 1493.81 3066.52 1495.4 3066.52 1497.05 3066.52 1499.24 3066.88 1501.34 3067.53 1503.31L3053.42 1512.18C3051.68 1511.17 3049.68 1510.58 3047.56 1510.58 3046.11 1510.58 3044.68 1510.85 3043.32 1511.38 3037.34 1513.72 3034.38 1520.49 3036.72 1526.47 3038.48 1530.97 3042.74 1533.87 3047.56 1533.87 3047.56 1533.87 3047.56 1533.87 3047.56 1533.87 3049.01 1533.87 3050.45 1533.6 3051.81 1533.07 3056.49 1531.23 3059.27 1526.69 3059.16 1521.93L3073.94 1512.63C3075.77 1514.13 3077.87 1515.29 3080.14 1516.07L3070.6 1572.95C3064.01 1575.11 3059.2 1581.25 3059.2 1588.55 3059.2 1597.63 3066.59 1605.02 3075.67 1605.02 3084.75 1605.02 3092.14 1597.63 3092.14 1588.55 3092.14 1581.55 3087.73 1575.59 3081.56 1573.21L3091.06 1516.68C3093.63 1516.1 3096.01 1515.04 3098.11 1513.58L3111.69 1526.66C3111.06 1529.28 3111.18 1532.1 3112.23 1534.8 3114.29 1540.06 3119.29 1543.47 3124.94 1543.47 3126.64 1543.47 3128.32 1543.16 3129.91 1542.53 3136.91 1539.78 3140.38 1531.86 3137.65 1524.85Z" fill="#00188F" fill-opacity="0.2"/><path d="M3134.23 1526.18C3132.22 1521.05 3126.43 1518.52 3121.3 1520.53 3120.15 1520.98 3119.15 1521.64 3118.28 1522.42L3100.73 1505.48C3102.21 1503.01 3103.12 1500.15 3103.12 1497.05 3103.12 1487.95 3095.75 1480.58 3086.65 1480.58 3081.25 1480.58 3076.49 1483.22 3073.49 1487.24L3061.41 1479.72C3062.07 1477.63 3062.08 1475.32 3061.22 1473.12 3059.21 1467.99 3053.42 1465.45 3048.29 1467.46 3043.15 1469.47 3040.62 1475.26 3042.63 1480.4 3044.64 1485.53 3050.43 1488.06 3055.56 1486.06 3057.15 1485.43 3058.45 1484.42 3059.49 1483.21L3071.47 1490.67C3070.64 1492.63 3070.18 1494.79 3070.18 1497.05 3070.18 1499.84 3070.94 1502.42 3072.16 1504.72L3053.24 1516.62C3051.07 1514.42 3047.72 1513.59 3044.65 1514.79 3040.54 1516.4 3038.52 1521.03 3040.12 1525.14 3041.73 1529.25 3046.36 1531.27 3050.47 1529.66 3054.33 1528.16 3056.31 1523.99 3055.21 1520.09L3074.44 1508C3076.95 1510.81 3080.4 1512.72 3084.31 1513.29L3074.93 1575.81C3068.2 1576.21 3062.86 1581.73 3062.86 1588.55 3062.86 1595.62 3068.6 1601.36 3075.67 1601.36 3082.74 1601.36 3088.48 1595.62 3088.48 1588.55 3088.48 1582.47 3084.23 1577.4 3078.55 1576.09L3087.95 1513.39C3091.98 1513.07 3095.62 1511.38 3098.31 1508.67L3115.89 1525.64C3114.79 1528.02 3114.61 1530.82 3115.64 1533.46 3117.65 1538.59 3123.44 1541.13 3128.58 1539.12 3133.71 1537.11 3136.24 1531.32 3134.23 1526.18Z" fill="#FFFFFF"/></g></g></g><rect x="1208.5" y="1433.5" width="1693" height="149" stroke="#2F528F" stroke-width="4.58333" stroke-miterlimit="8" fill="#4472C4"/><text fill="#FFFFFF" font-family="Yu Gothic,Yu Gothic_MSFontService,sans-serif" font-weight="400" font-size="48" transform="matrix(1 0 0 1 1786.35 1523)">Azure<tspan font-size="48" x="140.365" y="0">IoT</tspan><tspan font-size="48" x="225.729" y="0">Edge</tspan><tspan font-size="48" x="350.625" y="0">Runtime</tspan></text><rect x="1083.5" y="1703.5" width="2131" height="301" stroke="#70AD47" stroke-width="4.58333" stroke-miterlimit="8" fill="none"/><text font-family="Yu Gothic,Yu Gothic_MSFontService,sans-serif" font-weight="400" font-size="48" transform="matrix(1 0 0 1 1115.81 1763)">Host</text><path d="M2764.5 1801C2764.5 1812.88 2480.87 1822.5 2131 1822.5 1781.13 1822.5 1497.5 1812.88 1497.5 1801 1497.5 1789.13 1781.13 1779.5 2131 1779.5 2480.87 1779.5 2764.5 1789.13 2764.5 1801L2764.5 1930C2764.5 1941.87 2480.87 1951.5 2131 1951.5 1781.13 1951.5 1497.5 1941.87 1497.5 1930L1497.5 1801" stroke="#507E32" stroke-width="4.58333" stroke-miterlimit="8" fill="none" fill-rule="evenodd"/><text font-family="Yu Gothic,Yu Gothic_MSFontService,sans-serif" font-weight="400" font-size="48" transform="matrix(1 0 0 1 2557.84 1899)">Storage</text><rect x="1605.5" y="1843.5" width="731" height="79.0001" stroke="#507E32" stroke-width="4.58333" stroke-miterlimit="8" fill="none"/><text font-family="Yu Gothic,Yu Gothic_MSFontService,sans-serif" font-weight="400" font-size="48" transform="matrix(1 0 0 1 1638.31 1897)">/data <tspan font-size="48" x="136.354" y="0">もしくは、</tspan><tspan font-size="48" x="376.979" y="0">c:</tspan><tspan font-size="48" x="415.365" y="0">¥</tspan>ddata</text><rect x="1208.5" y="662.5" width="1693" height="686" stroke="#2F528F" stroke-width="4.58333" stroke-miterlimit="8" fill="none"/><text font-family="Yu Gothic,Yu Gothic_MSFontService,sans-serif" font-weight="700" font-size="48" transform="matrix(1 0 0 1 1566.07 722)">consoleinouttest<tspan font-size="48" x="405.625" y="0">: Azure IoT Edge Module</tspan></text><path d="M1566.52 727.464 1892.19 727.464 2217.85 727.464 2543.52 727.464 2543.52 729.464 2217.85 729.464 1892.19 729.464 1566.52 729.464Z" fill-rule="evenodd"/><rect x="1272.5" y="856.5" width="765" height="443" stroke="#2F528F" stroke-width="4.58333" stroke-miterlimit="8" fill="none"/><text font-family="Yu Gothic,Yu Gothic_MSFontService,sans-serif" font-weight="700" font-size="37" transform="matrix(1 0 0 1 1305.96 906)">ConsoleAppInOutTest<tspan font-size="37" x="403.333" y="0">: Parent Process</tspan></text><path d="M1306.12 910.437 1480.37 910.437 1654.62 910.437 1828.87 910.437 2003.12 910.437 2003.12 912.437 1828.87 912.437 1654.62 912.437 1480.37 912.437 1306.12 912.437Z" fill-rule="evenodd"/><rect x="2102.5" y="856.5" width="765" height="443" stroke="#2F528F" stroke-width="4.58333" stroke-miterlimit="8" fill="none"/><text font-family="Yu Gothic,Yu Gothic_MSFontService,sans-serif" font-weight="700" font-size="37" transform="matrix(1 0 0 1 2192.84 906)">ConsoleAppChild<tspan font-size="37" x="316.823" y="0">: Child Process</tspan></text><path d="M2193.27 910.437 2339.02 910.437 2484.77 910.437 2630.52 910.437 2776.27 910.437 2776.27 912.437 2630.52 912.437 2484.77 912.437 2339.02 912.437 2193.27 912.437Z" fill-rule="evenodd"/><path d="M2000.37 1059.5C2004.72 1059.5 2008.25 1045.4 2008.25 1028 2008.25 1010.6 2004.72 996.5 2000.37 996.5L2138.62 996.5C2142.97 996.5 2146.5 1010.6 2146.5 1028 2146.5 1045.4 2142.97 1059.5 2138.62 1059.5Z" fill="#FFFFFF" fill-rule="evenodd"/><path d="M2000.37 1059.5C1996.03 1059.5 1992.5 1045.4 1992.5 1028 1992.5 1010.6 1996.03 996.5 2000.37 996.5 2004.72 996.5 2008.25 1010.6 2008.25 1028 2008.25 1045.4 2004.72 1059.5 2000.37 1059.5Z" fill="#FFFFFF" fill-rule="evenodd"/><path d="M2000.37 996.5C2004.72 996.5 2008.25 1010.6 2008.25 1028 2008.25 1045.4 2004.72 1059.5 2000.37 1059.5 1996.03 1059.5 1992.5 1045.4 1992.5 1028 1992.5 1010.6 1996.03 996.5 2000.37 996.5L2138.62 996.5C2142.97 996.5 2146.5 1010.6 2146.5 1028 2146.5 1045.4 2142.97 1059.5 2138.62 1059.5L2000.37 1059.5" stroke="#2F528F" stroke-width="4.58333" stroke-miterlimit="8" fill="none" fill-rule="evenodd"/><path d="M2000.37 1154.5C2004.72 1154.5 2008.25 1140.4 2008.25 1123 2008.25 1105.6 2004.72 1091.5 2000.37 1091.5L2138.62 1091.5C2142.97 1091.5 2146.5 1105.6 2146.5 1123 2146.5 1140.4 2142.97 1154.5 2138.62 1154.5Z" fill="#FFFFFF" fill-rule="evenodd"/><path d="M2000.37 1154.5C1996.03 1154.5 1992.5 1140.4 1992.5 1123 1992.5 1105.6 1996.03 1091.5 2000.37 1091.5 2004.72 1091.5 2008.25 1105.6 2008.25 1123 2008.25 1140.4 2004.72 1154.5 2000.37 1154.5Z" fill="#FFFFFF" fill-rule="evenodd"/><path d="M2000.37 1091.5C2004.72 1091.5 2008.25 1105.6 2008.25 1123 2008.25 1140.4 2004.72 1154.5 2000.37 1154.5 1996.03 1154.5 1992.5 1140.4 1992.5 1123 1992.5 1105.6 1996.03 1091.5 2000.37 1091.5L2138.62 1091.5C2142.97 1091.5 2146.5 1105.6 2146.5 1123 2146.5 1140.4 2142.97 1154.5 2138.62 1154.5L2000.37 1154.5" stroke="#2F528F" stroke-width="4.58333" stroke-miterlimit="8" fill="none" fill-rule="evenodd"/><rect x="2492.5" y="1114.5" width="349" height="166" stroke="#2F528F" stroke-width="4.58333" stroke-miterlimit="8" stroke-dasharray="18.3333 13.75" fill="#FFFFFF"/><text font-family="Yu Gothic,Yu Gothic_MSFontService,sans-serif" font-weight="400" font-size="37" transform="matrix(1 0 0 1 2525.19 1165)">ファイル保存<tspan font-size="37" x="0" y="44">/data/test.txt or</tspan><tspan font-size="37" x="0" y="88">c:</tspan><tspan font-size="37" x="29.2188" y="88">¥</tspan><tspan font-size="37" x="50.4168" y="88">data</tspan><tspan font-size="37" x="126.042" y="88">¥</tspan><tspan font-size="37" x="147.24" y="88">test.txt</tspan></text><rect x="2215.5" y="968.5" width="334" height="120" stroke="#2F528F" stroke-width="4.58333" stroke-miterlimit="8" stroke-dasharray="18.3333 13.75" fill="#FFFFFF"/><text font-family="Yu Gothic,Yu Gothic_MSFontService,sans-serif" font-weight="400" font-size="37" transform="matrix(1 0 0 1 2248.19 1018)">stdin <tspan font-size="37" x="94.5313" y="0">-</tspan><tspan font-size="37" x="110.573" y="0">&gt; </tspan><tspan font-size="37" x="147.24" y="0">stdout</tspan><tspan font-size="37" x="0" y="44">echo</tspan></text><path d="M2146.5 1026.21 2183.17 1026.21 2183.17 1028.64 2180.88 1026.35 2192.33 1026.35 2192.33 1030.93 2178.58 1030.93 2178.58 1028.5 2180.88 1030.79 2146.5 1030.79ZM2187.75 1014.89 2215.25 1028.64 2187.75 1042.39Z" fill="#4472C4"/><path d="M2384.4 1088.5 2384.4 1125.44 2169.42 1125.44 2169.42 1120.86 2382.11 1120.86 2379.81 1123.15 2379.81 1088.5ZM2174 1136.9 2146.5 1123.15 2174 1109.4Z" fill="#4472C4"/><text font-family="Yu Gothic,Yu Gothic_MSFontService,sans-serif" font-weight="400" font-size="37" transform="matrix(1 0 0 1 2108.39 976)">stdin<tspan font-size="37" x="-239.028" y="210">stdout</tspan><tspan font-size="37" x="-120.435" y="210">of </tspan><tspan font-size="37" x="-239.028" y="254">child process</tspan><tspan font-size="37" x="16.3945" y="212">stdout</tspan></text><rect x="1322.5" y="968.5" width="454" height="120" stroke="#2F528F" stroke-width="4.58333" stroke-miterlimit="8" stroke-dasharray="18.3333 13.75" fill="#FFFFFF"/><text font-family="Yu Gothic,Yu Gothic_MSFontService,sans-serif" font-weight="400" font-size="37" transform="matrix(1 0 0 1 1354.61 1018)">Write to <tspan font-size="37" x="145.521" y="0">stdout</tspan><tspan font-size="37" x="264.115" y="0">of </tspan><tspan font-size="37" x="0" y="44">child process</tspan><tspan font-size="37" x="475.064" y="-47">stdin of child </tspan><tspan font-size="37" x="475.064" y="-3">process</tspan></text><rect x="1320.5" y="1114.5" width="454" height="120" stroke="#2F528F" stroke-width="4.58333" stroke-miterlimit="8" stroke-dasharray="18.3333 13.75" fill="#FFFFFF"/><text font-family="Yu Gothic,Yu Gothic_MSFontService,sans-serif" font-weight="400" font-size="37" transform="matrix(1 0 0 1 1352.95 1164)">Read from <tspan font-size="37" x="185.625" y="0">stdout</tspan><tspan font-size="37" x="304.219" y="0">of </tspan><tspan font-size="37" x="0" y="44">child process to </tspan><tspan font-size="37" x="277.865" y="44">stdout</tspan></text><path d="M1509.5 1266.25C1509.5 1270.53 1523.38 1274 1540.5 1274 1557.62 1274 1571.5 1270.53 1571.5 1266.25L1571.5 1327.75C1571.5 1332.03 1557.62 1335.5 1540.5 1335.5 1523.38 1335.5 1509.5 1332.03 1509.5 1327.75Z" fill="#FFFFFF" fill-rule="evenodd"/><path d="M1509.5 1266.25C1509.5 1261.97 1523.38 1258.5 1540.5 1258.5 1557.62 1258.5 1571.5 1261.97 1571.5 1266.25 1571.5 1270.53 1557.62 1274 1540.5 1274 1523.38 1274 1509.5 1270.53 1509.5 1266.25Z" fill="#FFFFFF" fill-rule="evenodd"/><path d="M1571.5 1266.25C1571.5 1270.53 1557.62 1274 1540.5 1274 1523.38 1274 1509.5 1270.53 1509.5 1266.25 1509.5 1261.97 1523.38 1258.5 1540.5 1258.5 1557.62 1258.5 1571.5 1261.97 1571.5 1266.25L1571.5 1327.75C1571.5 1332.03 1557.62 1335.5 1540.5 1335.5 1523.38 1335.5 1509.5 1332.03 1509.5 1327.75L1509.5 1266.25" stroke="#2F528F" stroke-width="4.58333" stroke-miterlimit="8" fill="none" fill-rule="evenodd"/><text font-family="Yu Gothic,Yu Gothic_MSFontService,sans-serif" font-weight="400" font-size="37" transform="matrix(1 0 0 1 1579.91 1288)">stdout</text><path d="M0-2.29167 110.677-2.29167 110.677 0.1375 108.385-2.15417 193.854-2.15417 193.854 2.42917 106.094 2.42917 106.094 0 108.385 2.29167 0 2.29167ZM189.271-13.6125 216.771 0.1375 189.271 13.8875Z" fill="#4472C4" transform="matrix(1 0 0 -1 1776.5 1028.64)"/><path d="M0-2.29167 111.509-2.29167 111.509 51.4254 109.217 49.1337 195.517 49.1337 195.517 53.717 106.925 53.717 106.925 0 109.217 2.29167 0 2.29167ZM190.934 37.6754 218.434 51.4254 190.934 65.1754Z" fill="#4472C4" transform="matrix(-1 1.22465e-16 1.22465e-16 1 1992.93 1122.5)"/><path d="M1549.46 1234.65 1548.35 1251.88 1543.77 1251.59 1544.89 1234.35ZM1560.51 1250.62 1540.5 1273.97 1533.83 1243.95Z" fill="#4472C4"/><path d="M2669.89 1280.5 2669.89 1391.26 1971.5 1391.26 1973.79 1388.97 1973.79 1820.23 1969.21 1820.23 1969.21 1386.68 2667.59 1386.68 2665.3 1388.97 2665.3 1280.5ZM1985.25 1815.65 1971.5 1843.15 1957.75 1815.65Z" fill="#70AD47"/><text font-family="Yu Gothic,Yu Gothic_MSFontService,sans-serif" font-weight="700" font-size="37" transform="matrix(1 0 0 1 1973.56 1692)">Binding option</text><path d="M1395.5 1457.5 1670.5 1457.5 1670.5 1540.83 1653.83 1557.5 1395.5 1557.5Z" fill="#E7E6E6" fill-rule="evenodd"/><path d="M1653.83 1557.5 1657.17 1544.17 1670.5 1540.83Z" fill="#BAB9B9" fill-rule="evenodd"/><path d="M1653.83 1557.5 1657.17 1544.17 1670.5 1540.83 1653.83 1557.5 1395.5 1557.5 1395.5 1457.5 1670.5 1457.5 1670.5 1540.83" stroke="#70AD47" stroke-width="4.58333" stroke-miterlimit="8" fill="none" fill-rule="evenodd"/><text font-family="Yu Gothic,Yu Gothic_MSFontService,sans-serif" font-weight="400" font-size="37" transform="matrix(1 0 0 1 1506.93 1511)">log</text><path d="M1542.89 1335.5 1542.89 1398.67 1532.5 1398.67 1534.79 1396.38 1534.79 1434.34 1530.21 1434.34 1530.21 1394.09 1540.6 1394.09 1538.31 1396.38 1538.31 1335.5ZM1546.25 1429.76 1532.5 1457.26 1518.75 1429.76Z" fill="#70AD47"/><text font-family="Yu Gothic,Yu Gothic_MSFontService,sans-serif" font-weight="700" font-size="37" transform="matrix(1 0 0 1 1925.59 1288)">Openstdin<tspan font-size="37" x="194.219" y="0">option</tspan></text></g></svg>